<mxfile host="app.diagrams.net" modified="2021-04-15T03:28:21.630Z" agent="5.0 (Windows NT 10.0; Win64; x64) AppleWebKit/537.36 (KHTML, like Gecko) Chrome/88.0.4324.182 Safari/537.36" etag="jFs--QKADbOZWAidbdLr" version="14.6.0" type="github">
  <diagram id="JArlyNFfzbbGBdshlCtq" name="第 1 页">
    <mxGraphModel dx="917" dy="517" grid="1" gridSize="10" guides="1" tooltips="1" connect="1" arrows="1" fold="1" page="1" pageScale="1" pageWidth="827" pageHeight="1169" math="0" shadow="0">
      <root>
        <mxCell id="0" />
        <mxCell id="1" parent="0" />
        <mxCell id="4HtywXxIrrCP3sspHy2d-1" value="key" style="rounded=0;whiteSpace=wrap;html=1;fillColor=#dae8fc;strokeColor=#6c8ebf;" vertex="1" parent="1">
          <mxGeometry x="10" y="240" width="50" height="40" as="geometry" />
        </mxCell>
        <mxCell id="4HtywXxIrrCP3sspHy2d-3" value="" style="rounded=1;whiteSpace=wrap;html=1;dashed=1;sketch=1;" vertex="1" parent="1">
          <mxGeometry x="110" y="56" width="160" height="430" as="geometry" />
        </mxCell>
        <mxCell id="4HtywXxIrrCP3sspHy2d-5" value="字符串string" style="text;html=1;strokeColor=none;fillColor=none;align=center;verticalAlign=middle;whiteSpace=wrap;rounded=0;dashed=1;sketch=1;" vertex="1" parent="1">
          <mxGeometry x="150" y="90" width="70" height="20" as="geometry" />
        </mxCell>
        <mxCell id="4HtywXxIrrCP3sspHy2d-6" value="&quot;hello world&quot;" style="rounded=0;whiteSpace=wrap;html=1;sketch=1;" vertex="1" parent="1">
          <mxGeometry x="150" y="110" width="70" height="20" as="geometry" />
        </mxCell>
        <mxCell id="4HtywXxIrrCP3sspHy2d-7" value="哈希hash" style="text;html=1;strokeColor=none;fillColor=none;align=center;verticalAlign=middle;whiteSpace=wrap;rounded=0;dashed=1;sketch=1;" vertex="1" parent="1">
          <mxGeometry x="150" y="150" width="70" height="20" as="geometry" />
        </mxCell>
        <mxCell id="4HtywXxIrrCP3sspHy2d-9" value="" style="shape=table;html=1;whiteSpace=wrap;startSize=0;container=1;collapsible=0;childLayout=tableLayout;" vertex="1" parent="1">
          <mxGeometry x="150" y="170" width="80" height="40" as="geometry" />
        </mxCell>
        <mxCell id="4HtywXxIrrCP3sspHy2d-10" value="" style="shape=partialRectangle;html=1;whiteSpace=wrap;collapsible=0;dropTarget=0;pointerEvents=0;fillColor=none;top=0;left=0;bottom=0;right=0;points=[[0,0.5],[1,0.5]];portConstraint=eastwest;" vertex="1" parent="4HtywXxIrrCP3sspHy2d-9">
          <mxGeometry width="80" height="20" as="geometry" />
        </mxCell>
        <mxCell id="4HtywXxIrrCP3sspHy2d-11" value="field1" style="shape=partialRectangle;html=1;whiteSpace=wrap;connectable=0;overflow=hidden;fillColor=none;top=0;left=0;bottom=0;right=0;" vertex="1" parent="4HtywXxIrrCP3sspHy2d-10">
          <mxGeometry width="40" height="20" as="geometry" />
        </mxCell>
        <mxCell id="4HtywXxIrrCP3sspHy2d-12" value="value1" style="shape=partialRectangle;html=1;whiteSpace=wrap;connectable=0;overflow=hidden;fillColor=none;top=0;left=0;bottom=0;right=0;" vertex="1" parent="4HtywXxIrrCP3sspHy2d-10">
          <mxGeometry x="40" width="40" height="20" as="geometry" />
        </mxCell>
        <mxCell id="4HtywXxIrrCP3sspHy2d-13" value="" style="shape=partialRectangle;html=1;whiteSpace=wrap;collapsible=0;dropTarget=0;pointerEvents=0;fillColor=none;top=0;left=0;bottom=0;right=0;points=[[0,0.5],[1,0.5]];portConstraint=eastwest;" vertex="1" parent="4HtywXxIrrCP3sspHy2d-9">
          <mxGeometry y="20" width="80" height="20" as="geometry" />
        </mxCell>
        <mxCell id="4HtywXxIrrCP3sspHy2d-14" value="field2" style="shape=partialRectangle;html=1;whiteSpace=wrap;connectable=0;overflow=hidden;fillColor=none;top=0;left=0;bottom=0;right=0;" vertex="1" parent="4HtywXxIrrCP3sspHy2d-13">
          <mxGeometry width="40" height="20" as="geometry" />
        </mxCell>
        <mxCell id="4HtywXxIrrCP3sspHy2d-15" value="value2" style="shape=partialRectangle;html=1;whiteSpace=wrap;connectable=0;overflow=hidden;fillColor=none;top=0;left=0;bottom=0;right=0;" vertex="1" parent="4HtywXxIrrCP3sspHy2d-13">
          <mxGeometry x="40" width="40" height="20" as="geometry" />
        </mxCell>
        <mxCell id="4HtywXxIrrCP3sspHy2d-44" value="&lt;font color=&quot;#ff0000&quot;&gt;&lt;b&gt;value类型&lt;/b&gt;&lt;/font&gt;" style="text;html=1;strokeColor=none;fillColor=none;align=center;verticalAlign=middle;whiteSpace=wrap;rounded=0;sketch=1;" vertex="1" parent="1">
          <mxGeometry x="151" y="60" width="70" height="20" as="geometry" />
        </mxCell>
        <mxCell id="4HtywXxIrrCP3sspHy2d-45" value="" style="endArrow=classic;html=1;entryX=-0.045;entryY=0.586;entryDx=0;entryDy=0;entryPerimeter=0;" edge="1" parent="1" target="4HtywXxIrrCP3sspHy2d-6">
          <mxGeometry width="50" height="50" relative="1" as="geometry">
            <mxPoint x="60" y="260" as="sourcePoint" />
            <mxPoint x="110" y="200" as="targetPoint" />
          </mxGeometry>
        </mxCell>
        <mxCell id="4HtywXxIrrCP3sspHy2d-46" value="" style="endArrow=classic;html=1;entryX=-0.039;entryY=0.014;entryDx=0;entryDy=0;entryPerimeter=0;exitX=1;exitY=0.5;exitDx=0;exitDy=0;" edge="1" parent="1" source="4HtywXxIrrCP3sspHy2d-1" target="4HtywXxIrrCP3sspHy2d-13">
          <mxGeometry width="50" height="50" relative="1" as="geometry">
            <mxPoint x="60" y="250" as="sourcePoint" />
            <mxPoint x="110" y="200" as="targetPoint" />
          </mxGeometry>
        </mxCell>
        <mxCell id="4HtywXxIrrCP3sspHy2d-47" value="" style="endArrow=classic;html=1;exitX=1;exitY=0.5;exitDx=0;exitDy=0;entryX=0;entryY=0.5;entryDx=0;entryDy=0;" edge="1" parent="1" source="4HtywXxIrrCP3sspHy2d-6" target="4HtywXxIrrCP3sspHy2d-54">
          <mxGeometry width="50" height="50" relative="1" as="geometry">
            <mxPoint x="420" y="390" as="sourcePoint" />
            <mxPoint x="470" y="340" as="targetPoint" />
          </mxGeometry>
        </mxCell>
        <mxCell id="4HtywXxIrrCP3sspHy2d-48" value="" style="endArrow=classic;html=1;entryX=0;entryY=0.5;entryDx=0;entryDy=0;" edge="1" parent="1" target="4HtywXxIrrCP3sspHy2d-26">
          <mxGeometry width="50" height="50" relative="1" as="geometry">
            <mxPoint x="60" y="260" as="sourcePoint" />
            <mxPoint x="100" y="280" as="targetPoint" />
          </mxGeometry>
        </mxCell>
        <mxCell id="4HtywXxIrrCP3sspHy2d-49" value="" style="endArrow=classic;html=1;entryX=0.003;entryY=0.452;entryDx=0;entryDy=0;entryPerimeter=0;" edge="1" parent="1" target="4HtywXxIrrCP3sspHy2d-33">
          <mxGeometry width="50" height="50" relative="1" as="geometry">
            <mxPoint x="60" y="260" as="sourcePoint" />
            <mxPoint x="80" y="300" as="targetPoint" />
          </mxGeometry>
        </mxCell>
        <mxCell id="4HtywXxIrrCP3sspHy2d-50" value="" style="endArrow=classic;html=1;entryX=0;entryY=0.5;entryDx=0;entryDy=0;exitX=1;exitY=0.5;exitDx=0;exitDy=0;" edge="1" parent="1" source="4HtywXxIrrCP3sspHy2d-1" target="4HtywXxIrrCP3sspHy2d-21">
          <mxGeometry width="50" height="50" relative="1" as="geometry">
            <mxPoint x="60" y="250" as="sourcePoint" />
            <mxPoint x="110" y="200" as="targetPoint" />
          </mxGeometry>
        </mxCell>
        <mxCell id="4HtywXxIrrCP3sspHy2d-51" value="" style="group" vertex="1" connectable="0" parent="1">
          <mxGeometry x="146" y="288" width="80" height="74" as="geometry" />
        </mxCell>
        <mxCell id="4HtywXxIrrCP3sspHy2d-17" value="集合set" style="text;html=1;strokeColor=none;fillColor=none;align=center;verticalAlign=middle;whiteSpace=wrap;rounded=0;dashed=1;sketch=1;" vertex="1" parent="4HtywXxIrrCP3sspHy2d-51">
          <mxGeometry x="5" width="70" height="20" as="geometry" />
        </mxCell>
        <mxCell id="4HtywXxIrrCP3sspHy2d-34" value="" style="group" vertex="1" connectable="0" parent="4HtywXxIrrCP3sspHy2d-51">
          <mxGeometry y="24" width="80" height="50" as="geometry" />
        </mxCell>
        <mxCell id="4HtywXxIrrCP3sspHy2d-26" value="" style="ellipse;whiteSpace=wrap;html=1;rounded=1;sketch=1;fillColor=#fff2cc;strokeColor=#d6b656;fillStyle=auto;" vertex="1" parent="4HtywXxIrrCP3sspHy2d-34">
          <mxGeometry width="80" height="50" as="geometry" />
        </mxCell>
        <mxCell id="4HtywXxIrrCP3sspHy2d-27" value="a" style="rounded=0;whiteSpace=wrap;html=1;sketch=0;fillColor=#f8cecc;strokeColor=#b85450;" vertex="1" parent="4HtywXxIrrCP3sspHy2d-34">
          <mxGeometry x="10" y="11" width="20" height="15" as="geometry" />
        </mxCell>
        <mxCell id="4HtywXxIrrCP3sspHy2d-28" value="b" style="rounded=0;whiteSpace=wrap;html=1;sketch=0;fillColor=#f8cecc;strokeColor=#b85450;" vertex="1" parent="4HtywXxIrrCP3sspHy2d-34">
          <mxGeometry x="50" y="11" width="20" height="15" as="geometry" />
        </mxCell>
        <mxCell id="4HtywXxIrrCP3sspHy2d-30" value="c" style="rounded=0;whiteSpace=wrap;html=1;sketch=0;fillColor=#f8cecc;strokeColor=#b85450;direction=south;" vertex="1" parent="4HtywXxIrrCP3sspHy2d-34">
          <mxGeometry x="32.5" y="28.5" width="15" height="20" as="geometry" />
        </mxCell>
        <mxCell id="4HtywXxIrrCP3sspHy2d-52" value="" style="group" vertex="1" connectable="0" parent="1">
          <mxGeometry x="134" y="372" width="110" height="105" as="geometry" />
        </mxCell>
        <mxCell id="4HtywXxIrrCP3sspHy2d-19" value="有序集合zset" style="text;html=1;strokeColor=none;fillColor=none;align=center;verticalAlign=middle;whiteSpace=wrap;rounded=0;dashed=1;sketch=1;" vertex="1" parent="4HtywXxIrrCP3sspHy2d-52">
          <mxGeometry x="15" width="80" height="20" as="geometry" />
        </mxCell>
        <mxCell id="4HtywXxIrrCP3sspHy2d-42" value="" style="group" vertex="1" connectable="0" parent="4HtywXxIrrCP3sspHy2d-52">
          <mxGeometry y="25" width="110" height="80" as="geometry" />
        </mxCell>
        <mxCell id="4HtywXxIrrCP3sspHy2d-33" value="" style="ellipse;whiteSpace=wrap;html=1;rounded=1;sketch=1;fillColor=#fad9d5;strokeColor=#ae4132;" vertex="1" parent="4HtywXxIrrCP3sspHy2d-42">
          <mxGeometry width="110" height="80" as="geometry" />
        </mxCell>
        <mxCell id="4HtywXxIrrCP3sspHy2d-37" value="a:1" style="rounded=0;whiteSpace=wrap;html=1;sketch=1;fillColor=#d0cee2;strokeColor=#56517e;" vertex="1" parent="4HtywXxIrrCP3sspHy2d-42">
          <mxGeometry x="38" y="49" width="30" height="20" as="geometry" />
        </mxCell>
        <mxCell id="4HtywXxIrrCP3sspHy2d-38" value="a:1" style="rounded=0;whiteSpace=wrap;html=1;sketch=1;fillColor=#d0cee2;strokeColor=#56517e;" vertex="1" parent="4HtywXxIrrCP3sspHy2d-42">
          <mxGeometry x="15" y="22" width="30" height="20" as="geometry" />
        </mxCell>
        <mxCell id="4HtywXxIrrCP3sspHy2d-39" value="a:1" style="rounded=0;whiteSpace=wrap;html=1;sketch=1;fillColor=#d0cee2;strokeColor=#56517e;" vertex="1" parent="4HtywXxIrrCP3sspHy2d-42">
          <mxGeometry x="67" y="22" width="30" height="20" as="geometry" />
        </mxCell>
        <mxCell id="4HtywXxIrrCP3sspHy2d-53" value="" style="group" vertex="1" connectable="0" parent="1">
          <mxGeometry x="140" y="222" width="120" height="44" as="geometry" />
        </mxCell>
        <mxCell id="4HtywXxIrrCP3sspHy2d-16" value="列表list" style="text;html=1;strokeColor=none;fillColor=none;align=center;verticalAlign=middle;whiteSpace=wrap;rounded=0;sketch=1;" vertex="1" parent="4HtywXxIrrCP3sspHy2d-53">
          <mxGeometry x="14" width="70" height="20" as="geometry" />
        </mxCell>
        <mxCell id="4HtywXxIrrCP3sspHy2d-20" value="" style="shape=table;html=1;whiteSpace=wrap;startSize=0;container=1;collapsible=0;childLayout=tableLayout;" vertex="1" parent="4HtywXxIrrCP3sspHy2d-53">
          <mxGeometry y="24" width="120" height="20" as="geometry" />
        </mxCell>
        <mxCell id="4HtywXxIrrCP3sspHy2d-21" value="" style="shape=partialRectangle;html=1;whiteSpace=wrap;collapsible=0;dropTarget=0;pointerEvents=0;fillColor=none;top=0;left=0;bottom=0;right=0;points=[[0,0.5],[1,0.5]];portConstraint=eastwest;" vertex="1" parent="4HtywXxIrrCP3sspHy2d-20">
          <mxGeometry width="120" height="20" as="geometry" />
        </mxCell>
        <mxCell id="4HtywXxIrrCP3sspHy2d-22" value="a" style="shape=partialRectangle;html=1;whiteSpace=wrap;connectable=0;overflow=hidden;fillColor=#ffe6cc;top=0;left=0;bottom=0;right=0;strokeColor=#d79b00;" vertex="1" parent="4HtywXxIrrCP3sspHy2d-21">
          <mxGeometry width="30" height="20" as="geometry" />
        </mxCell>
        <mxCell id="4HtywXxIrrCP3sspHy2d-23" value="b" style="shape=partialRectangle;html=1;whiteSpace=wrap;connectable=0;overflow=hidden;fillColor=#ffe6cc;top=0;left=0;bottom=0;right=0;strokeColor=#d79b00;" vertex="1" parent="4HtywXxIrrCP3sspHy2d-21">
          <mxGeometry x="30" width="30" height="20" as="geometry" />
        </mxCell>
        <mxCell id="4HtywXxIrrCP3sspHy2d-24" value="c" style="shape=partialRectangle;html=1;whiteSpace=wrap;connectable=0;overflow=hidden;fillColor=#ffe6cc;top=0;left=0;bottom=0;right=0;strokeColor=#d79b00;" vertex="1" parent="4HtywXxIrrCP3sspHy2d-21">
          <mxGeometry x="60" width="30" height="20" as="geometry" />
        </mxCell>
        <mxCell id="4HtywXxIrrCP3sspHy2d-25" value="d" style="shape=partialRectangle;html=1;whiteSpace=wrap;connectable=0;overflow=hidden;fillColor=#ffe6cc;top=0;left=0;bottom=0;right=0;strokeColor=#d79b00;" vertex="1" parent="4HtywXxIrrCP3sspHy2d-21">
          <mxGeometry x="90" width="30" height="20" as="geometry" />
        </mxCell>
        <mxCell id="4HtywXxIrrCP3sspHy2d-54" value="简单动态字符串(sds)" style="rounded=0;whiteSpace=wrap;html=1;sketch=0;fillColor=#fad9d5;strokeColor=#ae4132;" vertex="1" parent="1">
          <mxGeometry x="310" y="105" width="120" height="30" as="geometry" />
        </mxCell>
        <mxCell id="4HtywXxIrrCP3sspHy2d-55" value="能转整数的" style="endArrow=classic;html=1;" edge="1" parent="1">
          <mxGeometry width="50" height="50" relative="1" as="geometry">
            <mxPoint x="430" y="120" as="sourcePoint" />
            <mxPoint x="500" y="60" as="targetPoint" />
          </mxGeometry>
        </mxCell>
        <mxCell id="4HtywXxIrrCP3sspHy2d-56" value="大于44字节" style="endArrow=classic;html=1;exitX=1;exitY=0.5;exitDx=0;exitDy=0;" edge="1" parent="1" source="4HtywXxIrrCP3sspHy2d-54">
          <mxGeometry width="50" height="50" relative="1" as="geometry">
            <mxPoint x="250" y="220" as="sourcePoint" />
            <mxPoint x="510" y="170" as="targetPoint" />
            <Array as="points">
              <mxPoint x="510" y="170" />
            </Array>
          </mxGeometry>
        </mxCell>
        <mxCell id="4HtywXxIrrCP3sspHy2d-57" value="小于等于44字节" style="endArrow=classic;html=1;entryX=0;entryY=0.5;entryDx=0;entryDy=0;" edge="1" parent="1" target="4HtywXxIrrCP3sspHy2d-59">
          <mxGeometry width="50" height="50" relative="1" as="geometry">
            <mxPoint x="430" y="120" as="sourcePoint" />
            <mxPoint x="530" y="110" as="targetPoint" />
          </mxGeometry>
        </mxCell>
        <mxCell id="4HtywXxIrrCP3sspHy2d-58" value="raw" style="rounded=0;whiteSpace=wrap;html=1;sketch=0;fillColor=#fad9d5;strokeColor=#ae4132;align=center;" vertex="1" parent="1">
          <mxGeometry x="510" y="160" width="50" height="20" as="geometry" />
        </mxCell>
        <mxCell id="4HtywXxIrrCP3sspHy2d-59" value="embstr" style="rounded=0;whiteSpace=wrap;html=1;sketch=0;fillColor=#fad9d5;strokeColor=#ae4132;align=center;" vertex="1" parent="1">
          <mxGeometry x="550" y="100" width="50" height="20" as="geometry" />
        </mxCell>
        <mxCell id="4HtywXxIrrCP3sspHy2d-60" value="int" style="rounded=0;whiteSpace=wrap;html=1;sketch=0;fillColor=#fad9d5;strokeColor=#ae4132;align=center;" vertex="1" parent="1">
          <mxGeometry x="500" y="50" width="50" height="20" as="geometry" />
        </mxCell>
      </root>
    </mxGraphModel>
  </diagram>
</mxfile>
